<mxfile host="app.diagrams.net" modified="2024-06-30T08:43:37.438Z" agent="Mozilla/5.0 (Windows NT 10.0; Win64; x64) AppleWebKit/537.36 (KHTML, like Gecko) Chrome/126.0.0.0 Safari/537.36" etag="XE2WetCmGJKZLfWQ4vrV" version="24.6.2" type="device">
  <diagram name="ページ1" id="RwIdK2HEBQohbVTog6J1">
    <mxGraphModel dx="789" dy="652" grid="1" gridSize="10" guides="1" tooltips="1" connect="1" arrows="1" fold="1" page="1" pageScale="1" pageWidth="827" pageHeight="1169" math="0" shadow="0">
      <root>
        <mxCell id="0" />
        <mxCell id="1" parent="0" />
        <mxCell id="u3hBIVpOTylnkQYwZba2-1" value="リソースサーバー" style="sketch=0;outlineConnect=0;fontColor=#232F3E;gradientColor=none;fillColor=#232F3D;strokeColor=none;dashed=0;verticalLabelPosition=bottom;verticalAlign=top;align=center;html=1;fontSize=12;fontStyle=0;aspect=fixed;pointerEvents=1;shape=mxgraph.aws4.traditional_server;" vertex="1" parent="1">
          <mxGeometry x="540" y="430" width="45" height="78" as="geometry" />
        </mxCell>
        <mxCell id="u3hBIVpOTylnkQYwZba2-2" value="データベースサーバー" style="sketch=0;outlineConnect=0;fontColor=#232F3E;gradientColor=none;fillColor=#232F3D;strokeColor=none;dashed=0;verticalLabelPosition=bottom;verticalAlign=top;align=center;html=1;fontSize=12;fontStyle=0;aspect=fixed;pointerEvents=1;shape=mxgraph.aws4.traditional_server;" vertex="1" parent="1">
          <mxGeometry x="720" y="190" width="45" height="78" as="geometry" />
        </mxCell>
        <mxCell id="u3hBIVpOTylnkQYwZba2-3" value="ユーザー・&lt;div&gt;サービスクライアント情報&lt;/div&gt;" style="sketch=0;outlineConnect=0;fontColor=#232F3E;gradientColor=none;fillColor=#232F3D;strokeColor=none;dashed=0;verticalLabelPosition=bottom;verticalAlign=top;align=center;html=1;fontSize=12;fontStyle=0;aspect=fixed;pointerEvents=1;shape=mxgraph.aws4.generic_database;" vertex="1" parent="1">
          <mxGeometry x="713" y="390" width="59" height="78" as="geometry" />
        </mxCell>
        <mxCell id="u3hBIVpOTylnkQYwZba2-5" value="認証認可サーバー" style="sketch=0;outlineConnect=0;fontColor=#232F3E;gradientColor=none;fillColor=#232F3D;strokeColor=none;dashed=0;verticalLabelPosition=bottom;verticalAlign=top;align=center;html=1;fontSize=12;fontStyle=0;aspect=fixed;pointerEvents=1;shape=mxgraph.aws4.traditional_server;" vertex="1" parent="1">
          <mxGeometry x="540" y="70" width="45" height="78" as="geometry" />
        </mxCell>
        <mxCell id="u3hBIVpOTylnkQYwZba2-6" value="CLIアプリケーション&lt;div&gt;（ブラウザ）&lt;/div&gt;" style="sketch=0;outlineConnect=0;fontColor=#232F3E;gradientColor=none;fillColor=#232F3D;strokeColor=none;dashed=0;verticalLabelPosition=bottom;verticalAlign=top;align=center;html=1;fontSize=12;fontStyle=0;aspect=fixed;pointerEvents=1;shape=mxgraph.aws4.client;" vertex="1" parent="1">
          <mxGeometry x="282.5" y="370" width="78" height="76" as="geometry" />
        </mxCell>
        <mxCell id="u3hBIVpOTylnkQYwZba2-7" value="" style="sketch=0;outlineConnect=0;fontColor=#232F3E;gradientColor=none;fillColor=#232F3D;strokeColor=none;dashed=0;verticalLabelPosition=bottom;verticalAlign=top;align=center;html=1;fontSize=12;fontStyle=0;aspect=fixed;pointerEvents=1;shape=mxgraph.aws4.user;" vertex="1" parent="1">
          <mxGeometry x="30" y="210" width="78" height="78" as="geometry" />
        </mxCell>
        <mxCell id="u3hBIVpOTylnkQYwZba2-8" value="認証認可画面" style="sketch=0;outlineConnect=0;fontColor=#232F3E;gradientColor=none;fillColor=#232F3D;strokeColor=none;dashed=0;verticalLabelPosition=bottom;verticalAlign=top;align=center;html=1;fontSize=12;fontStyle=0;aspect=fixed;pointerEvents=1;shape=mxgraph.aws4.documents2;" vertex="1" parent="1">
          <mxGeometry x="282.5" y="70" width="67" height="78" as="geometry" />
        </mxCell>
        <mxCell id="u3hBIVpOTylnkQYwZba2-9" value="1. サイト（サービスクライアント）&lt;div&gt;を選択・ログイン&lt;/div&gt;" style="edgeStyle=orthogonalEdgeStyle;html=1;endArrow=block;elbow=vertical;startArrow=none;endFill=1;strokeColor=#545B64;rounded=0;" edge="1" parent="1" source="u3hBIVpOTylnkQYwZba2-7" target="u3hBIVpOTylnkQYwZba2-6">
          <mxGeometry width="100" relative="1" as="geometry">
            <mxPoint x="70" y="300" as="sourcePoint" />
            <mxPoint x="180" y="330" as="targetPoint" />
            <Array as="points">
              <mxPoint x="160" y="249" />
              <mxPoint x="160" y="348" />
              <mxPoint x="240" y="348" />
              <mxPoint x="240" y="408" />
            </Array>
          </mxGeometry>
        </mxCell>
        <mxCell id="u3hBIVpOTylnkQYwZba2-13" value="3. ID, Password" style="edgeStyle=orthogonalEdgeStyle;html=1;endArrow=block;elbow=vertical;startArrow=none;endFill=1;strokeColor=#545B64;rounded=0;" edge="1" parent="1" target="u3hBIVpOTylnkQYwZba2-8">
          <mxGeometry width="100" relative="1" as="geometry">
            <mxPoint x="110" y="250" as="sourcePoint" />
            <mxPoint x="380" y="300" as="targetPoint" />
            <Array as="points">
              <mxPoint x="160" y="250" />
              <mxPoint x="160" y="109" />
            </Array>
          </mxGeometry>
        </mxCell>
        <mxCell id="u3hBIVpOTylnkQYwZba2-14" value="4. ログイン情報照会" style="edgeStyle=orthogonalEdgeStyle;html=1;endArrow=block;elbow=vertical;startArrow=none;endFill=1;strokeColor=#545B64;rounded=0;" edge="1" parent="1" source="u3hBIVpOTylnkQYwZba2-8" target="u3hBIVpOTylnkQYwZba2-5">
          <mxGeometry width="100" relative="1" as="geometry">
            <mxPoint x="380" y="300" as="sourcePoint" />
            <mxPoint x="480" y="300" as="targetPoint" />
            <Array as="points">
              <mxPoint x="400" y="109" />
              <mxPoint x="400" y="109" />
            </Array>
          </mxGeometry>
        </mxCell>
        <mxCell id="u3hBIVpOTylnkQYwZba2-16" value="5. 認可問い合わせ" style="edgeStyle=orthogonalEdgeStyle;html=1;endArrow=none;elbow=vertical;startArrow=block;startFill=1;strokeColor=#545B64;rounded=0;" edge="1" parent="1" source="u3hBIVpOTylnkQYwZba2-8" target="u3hBIVpOTylnkQYwZba2-5">
          <mxGeometry width="100" relative="1" as="geometry">
            <mxPoint x="380" y="300" as="sourcePoint" />
            <mxPoint x="480" y="300" as="targetPoint" />
            <Array as="points">
              <mxPoint x="400" y="140" />
              <mxPoint x="400" y="140" />
            </Array>
          </mxGeometry>
        </mxCell>
        <mxCell id="u3hBIVpOTylnkQYwZba2-18" value="6. 認可を承認" style="edgeStyle=orthogonalEdgeStyle;html=1;endArrow=block;elbow=vertical;startArrow=none;endFill=1;strokeColor=#545B64;rounded=0;" edge="1" parent="1" source="u3hBIVpOTylnkQYwZba2-7" target="u3hBIVpOTylnkQYwZba2-8">
          <mxGeometry width="100" relative="1" as="geometry">
            <mxPoint x="380" y="300" as="sourcePoint" />
            <mxPoint x="480" y="300" as="targetPoint" />
            <Array as="points">
              <mxPoint x="230" y="250" />
              <mxPoint x="230" y="109" />
            </Array>
          </mxGeometry>
        </mxCell>
        <mxCell id="u3hBIVpOTylnkQYwZba2-19" value="2. リダイレクト" style="edgeStyle=orthogonalEdgeStyle;html=1;endArrow=block;elbow=vertical;startArrow=none;endFill=1;strokeColor=#545B64;rounded=0;" edge="1" parent="1" source="u3hBIVpOTylnkQYwZba2-6" target="u3hBIVpOTylnkQYwZba2-8">
          <mxGeometry width="100" relative="1" as="geometry">
            <mxPoint x="380" y="300" as="sourcePoint" />
            <mxPoint x="480" y="300" as="targetPoint" />
            <Array as="points">
              <mxPoint x="300" y="200" />
              <mxPoint x="300" y="200" />
            </Array>
          </mxGeometry>
        </mxCell>
        <mxCell id="u3hBIVpOTylnkQYwZba2-20" value="7. 認可コード送信" style="edgeStyle=orthogonalEdgeStyle;html=1;endArrow=block;elbow=vertical;startArrow=none;endFill=1;strokeColor=#545B64;rounded=0;" edge="1" parent="1" source="u3hBIVpOTylnkQYwZba2-8" target="u3hBIVpOTylnkQYwZba2-6">
          <mxGeometry width="100" relative="1" as="geometry">
            <mxPoint x="380" y="300" as="sourcePoint" />
            <mxPoint x="480" y="300" as="targetPoint" />
            <Array as="points">
              <mxPoint x="350" y="229" />
              <mxPoint x="350" y="229" />
            </Array>
          </mxGeometry>
        </mxCell>
        <mxCell id="u3hBIVpOTylnkQYwZba2-21" value="8. 認可コードと&lt;div&gt;認可トークンを交換&lt;/div&gt;" style="edgeStyle=orthogonalEdgeStyle;html=1;endArrow=block;elbow=vertical;startArrow=block;startFill=1;endFill=1;strokeColor=#545B64;rounded=0;" edge="1" parent="1" source="u3hBIVpOTylnkQYwZba2-6" target="u3hBIVpOTylnkQYwZba2-5">
          <mxGeometry width="100" relative="1" as="geometry">
            <mxPoint x="380" y="300" as="sourcePoint" />
            <mxPoint x="480" y="300" as="targetPoint" />
            <Array as="points">
              <mxPoint x="450" y="408" />
              <mxPoint x="450" y="190" />
              <mxPoint x="563" y="190" />
            </Array>
          </mxGeometry>
        </mxCell>
        <mxCell id="u3hBIVpOTylnkQYwZba2-22" value="9. プロフィール情報を照会" style="edgeStyle=orthogonalEdgeStyle;html=1;endArrow=block;elbow=vertical;startArrow=none;endFill=1;strokeColor=#545B64;rounded=0;" edge="1" parent="1" target="u3hBIVpOTylnkQYwZba2-1">
          <mxGeometry width="100" relative="1" as="geometry">
            <mxPoint x="370" y="430" as="sourcePoint" />
            <mxPoint x="480" y="300" as="targetPoint" />
          </mxGeometry>
        </mxCell>
        <mxCell id="u3hBIVpOTylnkQYwZba2-23" value="" style="edgeStyle=orthogonalEdgeStyle;html=1;endArrow=block;elbow=vertical;startArrow=block;startFill=1;endFill=1;strokeColor=#545B64;rounded=0;" edge="1" parent="1" source="u3hBIVpOTylnkQYwZba2-5" target="u3hBIVpOTylnkQYwZba2-2">
          <mxGeometry width="100" relative="1" as="geometry">
            <mxPoint x="380" y="300" as="sourcePoint" />
            <mxPoint x="480" y="300" as="targetPoint" />
          </mxGeometry>
        </mxCell>
        <mxCell id="u3hBIVpOTylnkQYwZba2-24" value="" style="edgeStyle=orthogonalEdgeStyle;html=1;endArrow=block;elbow=vertical;startArrow=block;startFill=1;endFill=1;strokeColor=#545B64;rounded=0;" edge="1" parent="1" source="u3hBIVpOTylnkQYwZba2-1" target="u3hBIVpOTylnkQYwZba2-2">
          <mxGeometry width="100" relative="1" as="geometry">
            <mxPoint x="380" y="300" as="sourcePoint" />
            <mxPoint x="480" y="300" as="targetPoint" />
            <Array as="points">
              <mxPoint x="620" y="469" />
              <mxPoint x="620" y="229" />
            </Array>
          </mxGeometry>
        </mxCell>
        <mxCell id="u3hBIVpOTylnkQYwZba2-26" value="" style="edgeStyle=orthogonalEdgeStyle;html=1;endArrow=block;elbow=vertical;startArrow=block;startFill=1;endFill=1;strokeColor=#545B64;rounded=0;" edge="1" parent="1" source="u3hBIVpOTylnkQYwZba2-2" target="u3hBIVpOTylnkQYwZba2-3">
          <mxGeometry width="100" relative="1" as="geometry">
            <mxPoint x="380" y="300" as="sourcePoint" />
            <mxPoint x="480" y="300" as="targetPoint" />
          </mxGeometry>
        </mxCell>
      </root>
    </mxGraphModel>
  </diagram>
</mxfile>
